<?xml version="1.0" encoding="UTF-8" standalone="no"?>
<svg
   viewBox="0 0 448 512"
   version="1.1"
   id="svg4"
   sodipodi:docname="linkedin.svg"
   inkscape:version="1.1.2 (0a00cf5339, 2022-02-04)"
   xmlns:inkscape="http://www.inkscape.org/namespaces/inkscape"
   xmlns:sodipodi="http://sodipodi.sourceforge.net/DTD/sodipodi-0.dtd"
   xmlns="http://www.w3.org/2000/svg"
   xmlns:svg="http://www.w3.org/2000/svg">
  <defs
     id="defs8" />
  <sodipodi:namedview
     id="namedview6"
     pagecolor="#ffffff"
     bordercolor="#666666"
     borderopacity="1.0"
     inkscape:pageshadow="2"
     inkscape:pageopacity="0.0"
     inkscape:pagecheckerboard="0"
     showgrid="false"
     inkscape:zoom="1.6386719"
     inkscape:cx="224.57211"
     inkscape:cy="256.30512"
     inkscape:window-width="1507"
     inkscape:window-height="749"
     inkscape:window-x="639"
     inkscape:window-y="176"
     inkscape:window-maximized="0"
     inkscape:current-layer="svg4" />
  <!--! Font Awesome Pro 6.3.0 by @fontawesome - https://fontawesome.com License - https://fontawesome.com/license (Commercial License) Copyright 2023 Fonticons, Inc. -->
  <path
     d="M416 32H31.9C14.3 32 0 46.5 0 64.3v383.4C0 465.5 14.3 480 31.9 480H416c17.6 0 32-14.5 32-32.3V64.3c0-17.8-14.4-32.3-32-32.3zM135.4 416H69V202.2h66.5V416zm-33.2-243c-21.3 0-38.5-17.3-38.5-38.5S80.9 96 102.2 96c21.2 0 38.5 17.3 38.5 38.5 0 21.3-17.2 38.5-38.5 38.5zm282.1 243h-66.4V312c0-24.8-.5-56.7-34.5-56.7-34.6 0-39.9 27-39.9 54.9V416h-66.4V202.2h63.7v29.2h.9c8.9-16.8 30.6-34.5 62.9-34.5 67.2 0 79.7 44.3 79.7 101.9V416z"
     id="path2"
     style="fill:#52687b;fill-opacity:1" />
  <path
     style="fill:#edebe0;fill-opacity:1;stroke-width:1.43104"
     d="m 93.070626,171.71581 c -6.452596,-1.55987 -12.35365,-4.93618 -17.457618,-9.98842 -7.853597,-7.77401 -11.536727,-16.53485 -11.536727,-27.44173 0,-10.53665 3.54779,-18.94886 11.232521,-26.63359 7.75566,-7.755662 16.084672,-11.232523 26.908118,-11.232523 10.62705,0 19.03839,3.457912 26.55846,10.918213 7.81669,7.75456 11.59244,16.61798 11.57317,27.16749 -0.0195,10.69756 -3.60421,19.26849 -11.26114,26.92543 -5.47221,5.4722 -11.09577,8.69248 -18.02186,10.32001 -4.90844,1.15342 -13.145441,1.13745 -17.994924,-0.0349 z"
     id="path1585" />
  <path
     style="fill:#edebe0;fill-opacity:1;stroke-width:1.43104"
     d="M 68.958284,309.09178 V 202.6031 h 33.258636 33.25865 V 309.09178 415.58045 H 102.21692 68.958284 Z"
     id="path1624" />
  <path
     style="fill:#edebe0;fill-opacity:1;stroke-width:1.43104"
     d="M 177.58284,309.09178 V 202.6031 h 31.42789 31.42789 v 14.30487 c 0,7.86767 0.23449,14.44978 0.52108,14.62691 0.2866,0.17713 1.9025,-1.79761 3.59088,-4.3883 3.67876,-5.64475 12.4838,-14.30702 18.49659,-18.19668 14.91601,-9.64912 33.11728,-13.41029 54.28298,-11.21721 11.68889,1.21114 20.9803,3.73788 29.29202,7.96577 6.48058,3.29646 9.35034,5.36377 14.50424,10.44853 11.4301,11.27677 17.55368,25.82274 21.28499,50.56041 0.94214,6.24619 1.0774,14.53752 1.27129,77.93146 l 0.21698,70.94159 h -32.97963 -32.97963 l -0.005,-59.34684 c -0.005,-60.74508 -0.16831,-65.744 -2.46283,-75.4482 -4.00289,-16.92933 -15.05653,-25.70923 -32.31643,-25.6689 -14.0423,0.0328 -25.34103,5.44028 -31.56026,15.10446 -2.61493,4.06337 -4.82017,9.83042 -6.46303,16.9018 -1.24163,5.34434 -1.2816,7.14808 -1.48415,66.97497 l -0.20814,61.48271 H 210.5117 177.58284 Z"
     id="path1663" />
</svg>
