<?xml version="1.0" encoding="UTF-8" standalone="no"?>
<svg
   viewBox="0 0 448 512"
   version="1.1"
   id="svg4"
   sodipodi:docname="square-twitter.svg"
   inkscape:version="1.1.2 (0a00cf5339, 2022-02-04)"
   xmlns:inkscape="http://www.inkscape.org/namespaces/inkscape"
   xmlns:sodipodi="http://sodipodi.sourceforge.net/DTD/sodipodi-0.dtd"
   xmlns="http://www.w3.org/2000/svg"
   xmlns:svg="http://www.w3.org/2000/svg">
  <defs
     id="defs8" />
  <sodipodi:namedview
     id="namedview6"
     pagecolor="#ffffff"
     bordercolor="#666666"
     borderopacity="1.0"
     inkscape:pageshadow="2"
     inkscape:pageopacity="0.0"
     inkscape:pagecheckerboard="0"
     showgrid="false"
     inkscape:zoom="1.6386719"
     inkscape:cx="224.26698"
     inkscape:cy="256.30513"
     inkscape:window-width="1920"
     inkscape:window-height="1011"
     inkscape:window-x="0"
     inkscape:window-y="32"
     inkscape:window-maximized="1"
     inkscape:current-layer="svg4" />
  <!--! Font Awesome Pro 6.3.0 by @fontawesome - https://fontawesome.com License - https://fontawesome.com/license (Commercial License) Copyright 2023 Fonticons, Inc. -->
  <path
     d="M400 32H48C21.5 32 0 53.5 0 80v352c0 26.5 21.5 48 48 48h352c26.5 0 48-21.5 48-48V80c0-26.5-21.5-48-48-48zm-48.9 158.8c.2 2.8.2 5.7.2 8.5 0 86.7-66 186.6-186.6 186.6-37.2 0-71.7-10.8-100.7-29.4 5.3.6 10.4.8 15.8.8 30.7 0 58.9-10.4 81.4-28-28.8-.6-53-19.5-61.3-45.5 10.1 1.5 19.2 1.5 29.6-1.2-30-6.1-52.5-32.5-52.5-64.4v-.8c8.7 4.9 18.9 7.9 29.6 8.3a65.447 65.447 0 0 1-29.2-54.6c0-12.2 3.2-23.4 8.9-33.1 32.3 39.8 80.8 65.8 135.2 68.6-9.3-44.5 24-80.6 64-80.6 18.9 0 35.9 7.9 47.9 20.7 14.8-2.8 29-8.3 41.6-15.8-4.9 15.2-15.2 28-28.8 36.1 13.2-1.4 26-5.1 37.8-10.2-8.9 13.1-20.1 24.7-32.9 34z"
     id="path2"
     style="fill:#6394b4;fill-opacity:1" />
  <path
     style="fill:#edebe0;stroke-width:1.43104"
     d="m 152.56257,385.3122 c -25.27523,-2.21472 -45.21954,-7.27106 -65.601903,-16.63158 -5.970501,-2.74193 -19.590719,-10.05174 -20.695649,-11.10711 -0.31767,-0.30342 2.962991,-0.37438 7.628129,-0.165 24.988252,1.12153 52.123253,-5.6338 73.107153,-18.20022 5.92003,-3.54528 14.06902,-9.17678 14.09118,-9.73795 0.008,-0.20348 -2.1544,-0.55084 -4.8054,-0.77192 -19.0309,-1.58712 -37.95796,-12.96955 -48.50201,-29.16833 -3.01479,-4.6316 -7.09277,-12.89919 -7.09277,-14.37968 0,-0.28249 4.59976,-0.5035 10.22169,-0.49113 9.78091,0.0215 19.23455,-1.07205 18.04693,-2.08762 -0.27623,-0.23621 -2.28721,-0.90568 -4.46886,-1.48771 -8.82626,-2.3547 -19.70396,-8.61668 -27.027753,-15.5591 C 85.571622,254.25241 77.501788,236.55487 77.501788,221.74829 v -3.90949 l 3.203814,1.62384 c 6.49995,3.29448 18.043626,6.32997 24.072238,6.32997 h 2.09592 l -4.46429,-3.56493 c -8.211334,-6.5571 -13.961923,-13.83616 -18.468002,-23.37669 -8.31092,-17.59636 -8.29335,-38.29704 0.04742,-55.87355 l 2.203231,-4.64286 3.067824,3.60506 c 5.189694,6.09851 18.121727,18.59857 24.706507,23.88123 24.5235,19.67405 54.56108,33.19714 85.5854,38.53105 7.7555,1.33338 21.30512,2.77999 21.76173,2.32338 0.16032,-0.16032 -0.0399,-2.55735 -0.44476,-5.32673 -1.08672,-7.43213 -0.42478,-18.98367 1.51839,-26.49753 5.87732,-22.72636 24.07373,-40.66133 47.34342,-46.6632 6.64655,-1.71432 18.11044,-2.30294 25.0603,-1.28674 12.92401,1.88974 25.71619,7.98743 35.22476,16.79068 l 3.60851,3.34084 7.05627,-1.78208 c 9.17453,-2.31706 17.34827,-5.37857 26.23252,-9.82553 4.38533,-2.19504 7.17044,-3.28453 7.17044,-2.80494 0,1.35283 -4.80259,10.78579 -7.65868,15.04271 -4.33955,6.468 -11.09522,12.95258 -19.5858,18.79987 -3.05977,2.10719 14.77819,-1.55215 25.71886,-5.27606 4.69892,-1.59939 9.07676,-3.14523 9.7285,-3.43521 3.19009,-1.41932 -11.99544,16.49366 -19.9922,23.58297 -3.08154,2.73187 -6.86979,5.91946 -8.41832,7.08355 l -2.81552,2.11652 -0.34312,13.20478 c -0.48786,18.77496 -3.0464,34.23985 -8.47945,51.25329 -9.66698,30.27183 -24.35382,54.86589 -45.91809,76.89274 -28.87159,29.49094 -64.00857,46.73012 -106.53177,52.26744 -7.2327,0.94183 -31.19241,1.68816 -37.22527,1.15953 z"
     id="path862" />
</svg>
