<?xml version="1.0" encoding="UTF-8" standalone="no"?>
<svg
   viewBox="0 0 512 512"
   version="1.1"
   id="svg4"
   sodipodi:docname="circle-xmark-solid.svg"
   inkscape:version="1.1.2 (0a00cf5339, 2022-02-04)"
   xmlns:inkscape="http://www.inkscape.org/namespaces/inkscape"
   xmlns:sodipodi="http://sodipodi.sourceforge.net/DTD/sodipodi-0.dtd"
   xmlns="http://www.w3.org/2000/svg"
   xmlns:svg="http://www.w3.org/2000/svg">
  <defs
     id="defs8" />
  <sodipodi:namedview
     id="namedview6"
     pagecolor="#ffffff"
     bordercolor="#666666"
     borderopacity="1.0"
     inkscape:pageshadow="2"
     inkscape:pageopacity="0.0"
     inkscape:pagecheckerboard="0"
     showgrid="false"
     inkscape:zoom="0.579358"
     inkscape:cx="204.53675"
     inkscape:cy="327.94921"
     inkscape:window-width="960"
     inkscape:window-height="1011"
     inkscape:window-x="0"
     inkscape:window-y="32"
     inkscape:window-maximized="0"
     inkscape:current-layer="svg4" />
  <!--! Font Awesome Pro 6.2.0 by @fontawesome - https://fontawesome.com License - https://fontawesome.com/license (Commercial License) Copyright 2022 Fonticons, Inc. -->
  <path
     d="M256 512c141.4 0 256-114.6 256-256S397.4 0 256 0S0 114.6 0 256S114.6 512 256 512zM175 175c9.4-9.4 24.6-9.4 33.9 0l47 47 47-47c9.4-9.4 24.6-9.4 33.9 0s9.4 24.6 0 33.9l-47 47 47 47c9.4 9.4 9.4 24.6 0 33.9s-24.6 9.4-33.9 0l-47-47-47 47c-9.4 9.4-24.6 9.4-33.9 0s-9.4-24.6 0-33.9l47-47-47-47c-9.4-9.4-9.4-24.6 0-33.9z"
     id="path2"
     style="fill:#454936;fill-opacity:0.55000001" />
  <path
     style="fill:#e9e7da;fill-opacity:1;stroke-width:4.04758"
     d="m 181.7006,340.92463 c -7.75394,-3.37085 -12.53346,-11.88725 -12.5414,-22.34688 l -0.006,-8.50845 26.73154,-26.92085 26.73153,-26.92084 -24.26097,-24.11939 c -13.34354,-13.26565 -25.37273,-26.21679 -26.73154,-28.78029 -1.35881,-2.56351 -2.47056,-8.28612 -2.47056,-12.71692 0,-7.05658 0.83134,-8.88733 6.70113,-14.75713 5.8698,-5.86979 7.70055,-6.70113 14.75713,-6.70113 4.4308,0 10.15341,1.11175 12.71692,2.47056 2.5635,1.35881 15.51464,13.388 28.78029,26.73154 l 24.11939,24.26097 26.92084,-26.73153 26.92085,-26.73154 8.50845,0.006 c 14.51769,0.011 24.9059,9.7516 24.9059,23.35323 0,7.39856 -2.74205,10.93428 -29.04982,37.45802 l -25.22662,25.43371 26.12788,26.34774 c 27.50578,27.73725 30.29941,32.21452 27.37375,43.87123 -1.48673,5.9236 -11.1621,15.59897 -17.0857,17.0857 -11.65671,2.92566 -16.13398,0.13205 -43.87123,-27.37375 l -26.34774,-26.12788 -25.43371,25.22662 c -13.98854,13.87463 -27.13027,26.08683 -29.20385,27.13822 -5.03719,2.55405 -12.26639,2.30857 -19.06601,-0.64742 z"
     id="path2249" />
</svg>
